<svg xmlns="http://www.w3.org/2000/svg" width="198" height="198" fill="none" viewBox="0 0 198 198">
  <path fill="#ACBFD3" d="M183 99h3v12.5l.5 1.5-.5 1.5 4 26.5h-10l3-26.5-.5-1.5.5-1.5V99Z"/>
  <path fill="#ACBFD3" d="M0 98.995 98.995 46l98.995 52.995-98.995 52.995L0 98.995Z"/>
  <path fill="#7A98B8" fill-rule="evenodd" d="M34 122.541v33l64.995 34.794L165 155v-33l-66.005 35.335L34 122.541Z" clip-rule="evenodd"/>
  <path fill="#fff" stroke="#fff" d="M115.5 181v-32l-10.5 5.5v32l10.5-5.5Z"/>
  <path fill="#fff" stroke="#fff" d="m163.5 123.5-50 26.551V162l50-26.5v-12Z"/>
  <path fill="#fff" d="M35 123.63v31.87l13.091 6.96v-31.81L35 123.63Zm36.404 19.541H48.091v9.329l3.021.73 21.148 22.22L98 189.21l-35.21-34.48 31.625.672-23.01-12.231Z"/>
  <path stroke="#fff" d="M48.091 143.171V130.65L35 123.63v31.87l13.091 6.96v-9.96m0-9.329h23.313l23.011 12.231-31.625-.672L98 189.21l-25.74-13.76-21.148-22.22-3.02-.73m0-9.329v9.329"/>
  <path fill="#fff" stroke="#fff" d="M164.5 155v-32l-9.5 5.5V160l9.5-5Z"/>
</svg>
